<svg width="196" height="401" viewBox="0 0 196 401" fill="none" xmlns="http://www.w3.org/2000/svg">
<path d="M165.466 0.216309H30.5334C22.5532 0.216309 14.8998 3.38645 9.25688 9.02934C3.61399 14.6722 0.443848 22.3256 0.443848 30.3059L0.443848 370.694C0.443848 378.674 3.61399 386.328 9.25688 391.971C14.8998 397.614 22.5532 400.784 30.5334 400.784H165.466C173.447 400.784 181.1 397.614 186.743 391.971C192.386 386.328 195.556 378.674 195.556 370.694V30.3059C195.556 22.3256 192.386 14.6722 186.743 9.02934C181.1 3.38645 173.447 0.216309 165.466 0.216309ZM186.153 370.694C186.153 373.411 185.618 376.101 184.578 378.611C183.539 381.12 182.015 383.401 180.094 385.322C178.173 387.243 175.893 388.766 173.383 389.806C170.873 390.846 168.183 391.381 165.466 391.381H30.5334C25.047 391.381 19.7853 389.201 15.9058 385.322C12.0263 381.442 9.84684 376.181 9.84684 370.694V30.3059C9.84684 24.8195 12.0263 19.5577 15.9058 15.6783C19.7853 11.7988 25.047 9.6193 30.5334 9.6193H165.466C168.183 9.6193 170.873 10.1544 173.383 11.194C175.893 12.2336 178.173 13.7573 180.094 15.6783C182.015 17.5992 183.539 19.8797 184.578 22.3895C185.618 24.8993 186.153 27.5893 186.153 30.3059V370.694Z" fill="black"/>
</svg>
